<svg width="587" height="326" viewBox="0 0 587 326" fill="none" xmlns="http://www.w3.org/2000/svg">
<path d="M382.936 147.411L353.454 157.348L388.899 156.355L382.936 147.411Z" fill="#F4F4F4"/>
<path d="M400.493 41.407L392.212 127.203L415.069 123.559L400.493 41.407Z" fill="#F4F4F4"/>
<path d="M408.775 180.867L407.781 177.555L410.431 179.874L408.775 180.867Z" fill="#F4F4F4"/>
<path d="M463.764 137.141L429.313 166.292L472.708 154.698L463.764 137.141Z" fill="#F4F4F4"/>
<path d="M469.727 158.673L429.645 169.605L450.183 175.899L469.727 158.673Z" fill="#F4F4F4"/>
<path d="M448.195 178.549L426.001 171.924L445.214 203.725L448.195 178.549Z" fill="#F4F4F4"/>
<path d="M474.696 213L463.102 211.012L469.727 219.625L474.696 213Z" fill="#F4F4F4"/>
<path d="M472.046 202.068L463.102 207.7L475.027 210.019L472.046 202.068Z" fill="#F4F4F4"/>
<path d="M442.233 208.694L434.945 207.7L450.183 225.919L451.177 221.281L442.233 208.694Z" fill="#F4F4F4"/>
<path d="M453.933 223.283L452.939 228.251L468.402 230.225L453.933 223.283Z" fill="#F4F4F4"/>
<path d="M462.108 134.16L433.289 158.342L406.125 150.391L419.045 127.535L403.807 41.407L462.108 134.16Z" fill="#F4F4F4"/>
<path d="M425.999 25.1755L404.135 34.7821L486.288 97.0589L441.237 32.132L425.999 25.1755Z" fill="#F4F4F4"/>
<path d="M493.578 106.666L464.758 132.011L407.781 41.5769L493.578 106.666Z" fill="#F4F4F4"/>
<path d="M457.47 22.5249L444.882 31.4689L479.333 81.1579L457.47 22.5249Z" fill="#F4F4F4"/>
<path d="M459.788 19.875L482.314 79.5018L485.957 66.9139L501.527 56.3136L459.788 19.875Z" fill="#F4F4F4"/>
<path d="M508.483 16.5628L505.833 52.0076L532.996 41.4073L508.483 16.5628Z" fill="#F4F4F4"/>
<path d="M487.283 23.8505L465.419 20.3014L503.183 53.3326L505.502 15.569L487.283 23.8505Z" fill="#F4F4F4"/>
<path d="M532.003 45.0511L514.777 52.0076L520.409 59.9578L532.003 45.0511Z" fill="#F4F4F4"/>
<path d="M522.727 75.8583H512.458L520.409 87.7837L522.727 75.8583Z" fill="#F4F4F4"/>
<path d="M537.965 20.5379L535.978 39.751L511.465 14.9065L537.965 20.5379Z" fill="#F4F4F4"/>
<path d="M511.466 72.8771L513.122 54.989L519.085 62.9393L522.397 72.8771H511.466Z" fill="#F4F4F4"/>
<path d="M391.549 158.674L405.13 179.874L406.124 170.93L418.381 157.348L404.137 153.042L391.549 158.674Z" fill="#F4F4F4"/>
<path d="M348.485 159.336L342.522 186.499L355.11 170.268L348.485 159.336Z" fill="#F4F4F4"/>
<path d="M345.835 157.017L339.21 186.831L321.984 162.98L345.835 157.017Z" fill="#F4F4F4"/>
<path d="M317.678 161.324L337.885 190.475L271.633 198.425L317.678 156.023L324.966 142.442L327.616 71.8834L345.835 153.705L317.678 161.324Z" fill="#F4F4F4"/>
<path d="M337.885 193.456L271.633 200.744L276.933 207.037L329.934 221.282L337.885 193.456Z" fill="#F4F4F4"/>
<path d="M321.984 248.114L278.92 210.019L328.941 224.263L321.984 248.114Z" fill="#F4F4F4"/>
<path d="M277.595 212.669L280.894 245.852L318.34 248.776L277.595 212.669Z" fill="#F4F4F4"/>
<path d="M282.233 248.776L309.065 276.933L320.659 251.426L282.233 248.776Z" fill="#F4F4F4"/>
<path d="M306.746 278.59H292.171L282.896 252.42L306.746 278.59Z" fill="#F4F4F4"/>
<path d="M267.989 199.419L244.801 204.056L229.231 185.174L275.608 149.398L267.989 199.419Z" fill="#F4F4F4"/>
<path d="M278.589 146.086L271.633 194.781L314.365 155.03L278.589 146.086Z" fill="#F4F4F4"/>
<path d="M271.301 107.991L271.633 129.523L317.015 139.792L271.301 107.991Z" fill="#F4F4F4"/>
<path d="M294.821 102.359L272.626 105.009L319.334 137.473L303.102 90.434L294.821 102.359Z" fill="#F4F4F4"/>
<path d="M324.634 70.5584L305.421 87.1214L321.984 135.154L324.634 70.5584Z" fill="#F4F4F4"/>
<path d="M298.465 70.8896L304.096 84.14L322.315 68.2396L298.465 70.8896Z" fill="#F4F4F4"/>
<path d="M297.14 67.9083L286.208 62.9394L299.79 55.9829L321.984 64.927L297.14 67.9083Z" fill="#F4F4F4"/>
<path d="M284.883 65.9207L286.539 79.1711L294.821 70.2271L284.883 65.9207Z" fill="#F4F4F4"/>
<path d="M283.558 84.14L268.983 89.4402L281.902 98.3842L283.558 84.14Z" fill="#F4F4F4"/>
<path d="M283.558 80.8274L269.314 85.7963L281.902 66.5833L283.558 80.8274Z" fill="#F4F4F4"/>
<path d="M352.46 58.9643L327.616 66.252L385.255 141.779L352.46 58.9643Z" fill="#F4F4F4"/>
<path d="M397.511 38.4262L355.11 57.308L387.905 140.454L397.511 38.4262Z" fill="#F4F4F4"/>
<path d="M390.224 20.8694L360.742 51.014L400.493 33.7885L405.793 21.8632L390.224 20.8694Z" fill="#F4F4F4"/>
<path d="M230.888 170.268L229.231 181.199L273.952 146.748L248.776 148.404L230.888 170.268Z" fill="#F4F4F4"/>
<path d="M257.057 141.779L241.819 136.148L256.395 124.222L267.326 130.848L257.057 141.779Z" fill="#F4F4F4"/>
<path d="M268.32 127.866L254.738 119.254L268.32 107.328V127.866Z" fill="#F4F4F4"/>
<path d="M261.032 107.328L245.463 107.991L257.72 95.7341L261.032 107.328Z" fill="#F4F4F4"/>
<path d="M343.516 258.714L337.885 257.72L339.541 244.47L347.491 235.857L350.804 239.501L343.516 258.714Z" fill="#F4F4F4"/>
<path d="M383.6 144.43L349.48 155.361L331.923 76.5212L383.6 144.43Z" fill="#F4F4F4"/>
<path d="M237.182 80.8274L229.894 69.8958L222.275 80.8274H237.182Z" fill="#F4F4F4"/>
<path d="M239.832 79.5024L232.876 68.5708L247.12 67.9083L239.832 79.5024Z" fill="#F4F4F4"/>
<path d="M235.526 7.95024L233.207 53.6641L247.12 22.5257L235.526 7.95024Z" fill="#F4F4F4"/>
<path d="M229.894 58.3017L204.056 68.9021V10.2691L232.544 5.96268L229.894 58.3017Z" fill="#F4F4F4"/>
<path d="M201.075 10.2691L176.893 21.2006L201.075 66.252V10.2691Z" fill="#F4F4F4"/>
<path d="M178.88 73.871L177.224 28.8196L200.081 71.2209L178.88 73.871Z" fill="#F4F4F4"/>
<path d="M178.88 0.331253L176.23 18.2193L198.425 7.95023L178.88 0.331253Z" fill="#F4F4F4"/>
<path d="M150.392 3.3126L173.249 17.2255L175.568 0L150.392 3.3126Z" fill="#F4F4F4"/>
<path d="M168.943 18.2193L143.436 22.5257L148.073 5.30016L168.943 18.2193Z" fill="#F4F4F4"/>
<path d="M38.7574 16.8943L0 71.2209L28.4884 57.6392L38.7574 16.8943Z" fill="#F4F4F4"/>
<path d="M42.4014 15.9005L32.1323 56.6454L66.2521 35.1135L42.4014 15.9005Z" fill="#F4F4F4"/>
<path d="M66.2522 39.0887L32.7949 59.958L49.3579 76.8523L66.2522 39.0887Z" fill="#F4F4F4"/>
<path d="M69.2332 40.4137L51.9082 77.8461H108.653L69.2332 40.4137Z" fill="#F4F4F4"/>
<path d="M109.647 75.5273L70.5586 37.4324L101.697 39.4199L109.647 75.5273Z" fill="#F4F4F4"/>
<path d="M93.4155 25.8383L101.697 36.1073L100.703 15.9005L93.4155 25.8383Z" fill="#F4F4F4"/>
<path d="M108.653 32.4635L104.347 36.1073V20.2069L108.653 32.4635Z" fill="#F4F4F4"/>
<path d="M109.647 34.451L104.347 38.7574L112.96 74.5335L121.572 50.3515L109.647 34.451Z" fill="#F4F4F4"/>
<path d="M124.554 51.3453L114.947 75.5273L145.092 58.9643L152.711 40.745L124.554 51.3453Z" fill="#F4F4F4"/>
<path d="M155.361 41.7387L147.742 59.6268L157.68 73.871L155.361 41.7387Z" fill="#F4F4F4"/>
<path d="M169.936 62.9394L160.33 75.5273L158.342 42.4013L169.936 62.9394Z" fill="#F4F4F4"/>
<path d="M151.717 38.7574L124.554 48.6952L127.866 32.4635L151.717 38.7574Z" fill="#F4F4F4"/>
<path d="M143.436 74.5335L129.523 104.678L151.717 115.61V87.4526L143.436 74.5335Z" fill="#F4F4F4"/>
<path d="M169.936 116.935L155.03 116.603V87.9767L161.324 84.4713L169.936 116.935Z" fill="#F4F4F4"/>
<path d="M128.198 107.659L92.0903 154.367L150.392 118.26L128.198 107.659Z" fill="#F4F4F4"/>
<path d="M111.966 83.1462L48.0327 133.829L86.4588 156.355L126.541 104.678L111.966 83.1462Z" fill="#F4F4F4"/>
<path d="M72.5461 173.58L49.3579 138.467L85.134 159.336L72.5461 173.58Z" fill="#F4F4F4"/>
<path d="M86.1278 162.98L76.8525 173.58L86.459 172.586L86.1278 162.98Z" fill="#F4F4F4"/>
<path d="M115.941 187.824L78.5088 178.88L114.285 199.418L118.26 194.781L115.941 187.824Z" fill="#F4F4F4"/>
<path d="M99.7094 180.537L80.8276 176.23L87.7841 175.568L99.7094 180.537Z" fill="#F4F4F4"/>
<path d="M116.272 202.069L114.285 218.632L133.829 192.131L121.241 196.437L116.272 202.069Z" fill="#F4F4F4"/>
<path d="M137.804 192.131L118.26 218.632L152.38 199.418L137.804 192.131Z" fill="#F4F4F4"/>
<path d="M154.367 202.069L121.572 220.288L164.305 212.338L154.367 202.069Z" fill="#F4F4F4"/>
<path d="M160.992 216.313L117.597 224.263L133.829 244.139L160.992 216.313Z" fill="#F4F4F4"/>
<path d="M166.955 214.656L139.46 243.145L193.125 224.594L166.955 214.656Z" fill="#F4F4F4"/>
<path d="M193.125 228.238L139.46 246.457L173.911 256.726L193.125 228.238Z" fill="#F4F4F4"/>
<path d="M158.342 277.927L137.804 249.439L171.924 259.376L158.342 277.927Z" fill="#F4F4F4"/>
<path d="M135.817 308.734V251.095L156.355 280.577L135.817 308.734Z" fill="#F4F4F4"/>
<path d="M156.686 285.877L137.804 311.716L151.717 325.96L156.686 285.877Z" fill="#F4F4F4"/>
<path d="M52.6705 107.659L51.0142 81.1587H104.924L52.6705 107.659Z" fill="#F4F4F4"/>
<path d="M46.7075 130.848L52.6702 111.303L104.347 85.1338L46.7075 130.848Z" fill="#F4F4F4"/>
<path d="M488.94 275.608L465.42 258.383L464.095 281.902L488.94 275.608Z" fill="#F4F4F4"/>
<path d="M484.302 240.163L466.457 255.034L489.977 272.259L484.302 240.163Z" fill="#F4F4F4"/>
<path d="M493.246 271.964L487.615 239.832L509.809 250.432L493.246 271.964Z" fill="#F4F4F4"/>
<path d="M516.434 237.182L513.122 250.527L528.028 267.09L516.434 237.182Z" fill="#F4F4F4"/>
<path d="M505.171 290.183L512.459 254.739L530.016 274.283L505.171 290.183Z" fill="#F4F4F4"/>
<path d="M529.022 278.589L508.153 292.171L523.059 296.146L529.022 278.589Z" fill="#F4F4F4"/>
<path d="M501.859 290.183L493.909 276.271L508.815 257.057L501.859 290.183Z" fill="#F4F4F4"/>
<path d="M525.71 221.281L516.103 230.888L531.341 234.201L525.71 221.281Z" fill="#F4F4F4"/>
<path d="M523.059 219.294L513.122 229.232L505.171 216.312L523.059 219.294Z" fill="#F4F4F4"/>
<path d="M386.397 164.305L381.613 159.336L390.225 159.004L386.397 164.305Z" fill="#F4F4F4"/>
<path d="M403.475 148.735L396.518 129.522L416.063 126.21L403.475 148.735Z" fill="#F4F4F4"/>
<path d="M401.405 150.707L390.142 155.676L397.18 140.785L401.405 150.707Z" fill="#F4F4F4"/>
<path d="M395.856 137.141L388.9 152.048L384.924 145.754L390.887 141.117L393.537 130.185L395.856 137.141Z" fill="#F4F4F4"/>
<g filter="url(#filter0_i_92_8)">
<path d="M551.45 306.949L547 303.833L561.879 295.016L572.17 282.949L581 284.01L551.45 306.949Z" fill="#F4F4F4"/>
<path d="M551.45 306.949L547 303.833L561.879 295.016L572.17 282.949L581 284.01L551.45 306.949Z" stroke="#F4F4F4"/>
</g>
<defs>
<filter id="filter0_i_92_8" x="546.078" y="282.421" width="36.1899" height="29.1495" filterUnits="userSpaceOnUse" color-interpolation-filters="sRGB">
<feFlood flood-opacity="0" result="BackgroundImageFix"/>
<feBlend mode="normal" in="SourceGraphic" in2="BackgroundImageFix" result="shape"/>
<feColorMatrix in="SourceAlpha" type="matrix" values="0 0 0 0 0 0 0 0 0 0 0 0 0 0 0 0 0 0 127 0" result="hardAlpha"/>
<feOffset dy="4"/>
<feGaussianBlur stdDeviation="2"/>
<feComposite in2="hardAlpha" operator="arithmetic" k2="-1" k3="1"/>
<feColorMatrix type="matrix" values="0 0 0 0 0 0 0 0 0 0 0 0 0 0 0 0 0 0 1 0"/>
<feBlend mode="normal" in2="shape" result="effect1_innerShadow_92_8"/>
</filter>
</defs>
</svg>
